<?xml version="1.0" encoding="utf-8"?>
<!-- Generator: Adobe Illustrator 18.1.1, SVG Export Plug-In . SVG Version: 6.00 Build 0)  -->
<!DOCTYPE svg PUBLIC "-//W3C//DTD SVG 1.1//EN" "http://www.w3.org/Graphics/SVG/1.1/DTD/svg11.dtd">
<svg version="1.1" xmlns="http://www.w3.org/2000/svg" xmlns:xlink="http://www.w3.org/1999/xlink" x="0px" y="0px"
	 viewBox="0 0 499.9 408.1" enable-background="new 0 0 499.9 408.1" xml:space="preserve">
<g id="Layer_1">
</g>
<g id="Layer_2">
	<path fill="#A4B2BC" d="M247,241.4c-22.2,0-40.2-18-40.2-40.2c0-22.2,18-40.2,40.2-40.2s40.2,18,40.2,40.2
		C287.2,223.4,269.2,241.4,247,241.4z M392.8,230.4v-56.8h-30.5c-2.8-11.9-7.5-23-13.6-33.2l21.4-21.4l-40.2-40.2L308.7,100
		c-10.2-6.2-21.4-11-33.4-13.9V56.2h-56.8v29.9c-11.9,2.9-23.1,7.7-33.3,13.9L164,78.8L123.9,119l21.4,21.4
		c-6.1,10.2-10.7,21.3-13.5,33.2h-30.5v56.8H132c2.9,11.7,7.6,22.6,13.7,32.6L123.8,285l40.2,40.2l22.1-22.1
		c10,6,20.9,10.5,32.5,13.4v31.3h56.8v-31.3c11.6-2.8,22.5-7.4,32.5-13.4l22.1,22.1l40.2-40.2L348.2,263c6.1-10,10.8-21,13.7-32.6
		H392.8z"/>
	<path fill="#B6C5CE" d="M348.5,96.8L142.3,302.9l22.4,22.4l21.8-21.8c10.3,6.2,21.4,10.6,32.8,13.4l0,31h56.8l0-31.3
		c11.3-2.8,22.2-7.3,32.4-13.5l22.1,22.1l40.2-40.2L348.7,263c6.2-10.2,10.7-21.1,13.5-32.4l31.2,0l0-56.8h-31
		c-2.8-11.4-7.2-22.4-13.4-32.8l21.8-21.8L330.7,79"/>
	<circle fill="#929EA5" cx="245.2" cy="200.1" r="84.3"/>
	<circle fill="#FFFFFF" cx="246.1" cy="201" r="43.8"/>
</g>
<g id="Layer_3">
	<g id="Base_Circle">
	</g>
</g>
<g id="Layer_5">
</g>
</svg>
